# xmcd
#
# Track frame offsets:
#	150
#	24232
#	46520
#	63615
#	92217
#	110405
#	138552
#	159230
#	187832
#	221502
#
# Disc length: 3308 seconds
#
# Revision: 1
# Processed by: cddbd v1.4PL0 Copyright (c) Steve Scherf et al.
# Submitted via: MusicWizard 6.0.0
#
DISCID=7c0cea0a
DTITLE=Cheatham Jeannie and Jimmy - Back To The Neighborhood
DYEAR=1988
DGENRE=Blues
TTITLE0=What Goes 'Round Comes Around
TTITLE1=Salty Papa
TTITLE2=Big Bubb's Back Rub Boogie Blues
TTITLE3=In The Dark
TTITLE4=Back To The 'Hood
TTITLE5=Rock Me In Your Arms Tonight
TTITLE6=Evenin'
TTITLE7=Call Me Darling
TTITLE8=After Hours
TTITLE9=Take The Wrinkles Our Of Your Birthday Suit
EXTD=Sweet Baby Blues Band - incl Jeannie Cheatham p, voc - Jimmy Cheatham btb - Clora Bryant tp, flh
EXTD=Red Callender b - Dinky Morris bars - John "ironman" Harris dr - Jimmie Noone ts, ss, cl - Curt
EXTD=is Peagler as, ts - Snooky Young tp, flh - Herman Riley ts, ss - Special Guest Papa John Creach 
EXTD=v (1, 2, 8)
EXTT0=
EXTT1=
EXTT2=
EXTT3=
EXTT4=
EXTT5=
EXTT6=
EXTT7=
EXTT8=
EXTT9=
PLAYORDER=
